<?xml version="1.0" encoding="UTF-8" standalone="no"?>
<svg
   xmlns:dc="http://purl.org/dc/elements/1.1/"
   xmlns:cc="http://creativecommons.org/ns#"
   xmlns:rdf="http://www.w3.org/1999/02/22-rdf-syntax-ns#"
   xmlns:svg="http://www.w3.org/2000/svg"
   xmlns="http://www.w3.org/2000/svg"
   xmlns:sodipodi="http://sodipodi.sourceforge.net/DTD/sodipodi-0.dtd"
   xmlns:inkscape="http://www.inkscape.org/namespaces/inkscape"
   version="1.1"
   id="Capa_1"
   x="0px"
   y="0px"
   viewBox="0 0 1200 840"
   xml:space="preserve"
   sodipodi:docname="icon.svg"
   width="1200"
   height="840"
   inkscape:version="1.0.1 (3bc2e813f5, 2020-09-07)"><metadata
   id="metadata61"><rdf:RDF><cc:Work
       rdf:about=""><dc:format>image/svg+xml</dc:format><dc:type
         rdf:resource="http://purl.org/dc/dcmitype/StillImage" /><dc:title></dc:title></cc:Work></rdf:RDF></metadata><defs
   id="defs59" /><sodipodi:namedview
   pagecolor="#ffffff"
   bordercolor="#666666"
   borderopacity="1"
   objecttolerance="10"
   gridtolerance="10"
   guidetolerance="10"
   inkscape:pageopacity="0"
   inkscape:pageshadow="2"
   inkscape:window-width="1920"
   inkscape:window-height="1049"
   id="namedview57"
   showgrid="false"
   fit-margin-top="0"
   fit-margin-left="0"
   fit-margin-right="0"
   fit-margin-bottom="0"
   inkscape:zoom="0.65554691"
   inkscape:cx="-147.83279"
   inkscape:cy="243.46123"
   inkscape:window-x="0"
   inkscape:window-y="31"
   inkscape:window-maximized="1"
   inkscape:current-layer="Capa_1" />
<g
   id="g24"
   transform="matrix(20,0,0,20,0,-180)">
	<g
   id="g22">
		<path
   d="M 55.822,9 H 4.178 C 1.875,9 0,10.875 0,13.178 V 46.822 C 0,49.125 1.875,51 4.178,51 H 55.822 C 58.125,51 60,49.125 60,46.822 V 13.178 C 60,10.875 58.125,9 55.822,9 Z M 58,46.822 C 58,48.023 57.023,49 55.822,49 H 4.178 C 2.977,49 2,48.023 2,46.822 V 13.178 C 2,11.977 2.977,11 4.178,11 H 55.822 C 57.023,11 58,11.977 58,13.178 Z"
   id="path2" />
		<path
   d="M 4,45 H 56 V 13 H 4 Z M 6,15 H 54 V 43 H 6 Z"
   id="path4" />
		<path
   d="m 32,46 h -4 c -0.552,0 -1,0.448 -1,1 0,0.552 0.448,1 1,1 h 4 c 0.552,0 1,-0.448 1,-1 0,-0.552 -0.448,-1 -1,-1 z"
   id="path6" />
		<path
   d="m 9,23 c 0.256,0 0.512,-0.098 0.707,-0.293 l 4,-4 c 0.391,-0.391 0.391,-1.023 0,-1.414 -0.391,-0.391 -1.023,-0.391 -1.414,0 l -4,4 c -0.391,0.391 -0.391,1.023 0,1.414 C 8.488,22.902 8.744,23 9,23 Z"
   id="path8" />
		<path
   d="m 9,28 c 0.256,0 0.512,-0.098 0.707,-0.293 l 2,-2 c 0.391,-0.391 0.391,-1.023 0,-1.414 -0.391,-0.391 -1.023,-0.391 -1.414,0 l -2,2 c -0.391,0.391 -0.391,1.023 0,1.414 C 8.488,27.902 8.744,28 9,28 Z"
   id="path10" />
		<path
   d="M 12.29,22.29 C 12.11,22.48 12,22.73 12,23 c 0,0.27 0.11,0.52 0.29,0.71 0.19,0.18 0.45,0.29 0.71,0.29 0.26,0 0.52,-0.11 0.71,-0.29 C 13.89,23.52 14,23.27 14,23 c 0,-0.26 -0.11,-0.52 -0.29,-0.71 -0.38,-0.37 -1.05,-0.37 -1.42,0 z"
   id="path12" />
		<path
   d="M 14.293,21.707 C 14.488,21.902 14.744,22 15,22 c 0.256,0 0.512,-0.098 0.707,-0.293 l 3,-3 c 0.391,-0.391 0.391,-1.023 0,-1.414 -0.391,-0.391 -1.023,-0.391 -1.414,0 l -3,3 c -0.391,0.391 -0.391,1.023 0,1.414 z"
   id="path14" />
		<path
   d="m 17.293,22.293 -9,9 c -0.391,0.391 -0.391,1.023 0,1.414 C 8.488,32.902 8.744,33 9,33 9.256,33 9.512,32.902 9.707,32.707 l 9,-9 c 0.391,-0.391 0.391,-1.023 0,-1.414 -0.391,-0.391 -1.023,-0.391 -1.414,0 z"
   id="path16" />
		<path
   d="M 19.29,20.29 C 19.11,20.48 19,20.74 19,21 c 0,0.26 0.11,0.52 0.29,0.71 0.19,0.18 0.45,0.29 0.71,0.29 0.26,0 0.52,-0.11 0.71,-0.29 C 20.89,21.52 21,21.26 21,21 c 0,-0.26 -0.11,-0.52 -0.29,-0.71 -0.37,-0.37 -1.04,-0.37 -1.42,0 z"
   id="path18" />
		<path
   d="m 22.293,17.293 -1,1 c -0.391,0.391 -0.391,1.023 0,1.414 C 21.488,19.902 21.744,20 22,20 c 0.256,0 0.512,-0.098 0.707,-0.293 l 1,-1 c 0.391,-0.391 0.391,-1.023 0,-1.414 -0.391,-0.391 -1.023,-0.391 -1.414,0 z"
   id="path20" />
	</g>
</g>
<g
   id="g26"
   transform="translate(0,-8.9999997)">
</g>
<g
   id="g28"
   transform="translate(0,-8.9999997)">
</g>
<g
   id="g30"
   transform="translate(0,-8.9999997)">
</g>
<g
   id="g32"
   transform="translate(0,-8.9999997)">
</g>
<g
   id="g34"
   transform="translate(0,-8.9999997)">
</g>
<g
   id="g36"
   transform="translate(0,-8.9999997)">
</g>
<g
   id="g38"
   transform="translate(0,-8.9999997)">
</g>
<g
   id="g40"
   transform="translate(0,-8.9999997)">
</g>
<g
   id="g42"
   transform="translate(0,-8.9999997)">
</g>
<g
   id="g44"
   transform="translate(0,-8.9999997)">
</g>
<g
   id="g46"
   transform="translate(0,-8.9999997)">
</g>
<g
   id="g48"
   transform="translate(0,-8.9999997)">
</g>
<g
   id="g50"
   transform="translate(0,-8.9999997)">
</g>
<g
   id="g52"
   transform="translate(0,-8.9999997)">
</g>
<g
   id="g54"
   transform="translate(0,-8.9999997)">
</g>
</svg>
